<svg width="20" height="21" viewBox="0 0 20 21" fill="none" xmlns="http://www.w3.org/2000/svg">
<path fill-rule="evenodd" clip-rule="evenodd" d="M13.6757 2.70716L13.6766 3.33185C15.9721 3.51176 17.4885 5.07598 17.4909 7.47478L17.5 14.4963C17.5033 17.1116 15.8602 18.7208 13.2265 18.725L6.79324 18.7333C4.17599 18.7366 2.51235 17.0891 2.50906 14.4663L2.50001 7.52725C2.49671 5.11263 3.95961 3.55257 6.25514 3.34185L6.25432 2.71716C6.2535 2.35068 6.52501 2.07498 6.88703 2.07498C7.24905 2.07415 7.52057 2.34901 7.52139 2.71549L7.52221 3.29854L12.4095 3.29187L12.4087 2.70883C12.4078 2.34235 12.6794 2.06749 13.0414 2.06665C13.3952 2.06582 13.6749 2.34068 13.6757 2.70716ZM3.7679 7.78462L16.2247 7.76796V7.47644C16.1893 5.68567 15.2908 4.74614 13.6782 4.60621L13.679 5.24756C13.679 5.60571 13.4001 5.88974 13.0463 5.88974C12.6843 5.89057 12.412 5.60738 12.412 5.24922L12.4111 4.57456L7.52386 4.58123L7.52468 5.25506C7.52468 5.61404 7.25399 5.89723 6.89197 5.89723C6.52995 5.89807 6.25761 5.61571 6.25761 5.25672L6.25679 4.61538C4.65238 4.77613 3.76461 5.71899 3.76708 7.52558L3.7679 7.78462ZM12.6999 11.5702V11.5794C12.7082 11.9625 13.0208 12.2532 13.4001 12.2449C13.7704 12.2357 14.0657 11.9184 14.0575 11.5352C14.0402 11.1688 13.7432 10.8697 13.3738 10.8706C12.9953 10.8789 12.6991 11.1871 12.6999 11.5702ZM13.3795 15.31C13.0011 15.3017 12.6958 14.986 12.695 14.6029C12.6868 14.2197 12.9904 13.9024 13.3688 13.8932H13.3771C13.7638 13.8932 14.0772 14.2089 14.0772 14.6004C14.0781 14.9918 13.7654 15.3092 13.3795 15.31ZM9.3101 11.5836C9.32655 11.9667 9.64003 12.2657 10.0185 12.2491C10.3888 12.2316 10.6841 11.9151 10.6677 11.5319C10.6586 11.1571 10.3542 10.8656 9.98395 10.8664C9.60547 10.8831 9.30928 11.2004 9.3101 11.5836ZM10.0218 15.2725C9.64332 15.2892 9.33067 14.9902 9.31339 14.607C9.31339 14.2239 9.60877 13.9074 9.98724 13.8899C10.3575 13.8891 10.6627 14.1806 10.671 14.5546C10.6882 14.9385 10.392 15.255 10.0218 15.2725ZM5.92027 11.6127C5.93673 11.9958 6.2502 12.2957 6.62868 12.2782C6.99893 12.2615 7.2943 11.9442 7.27703 11.5611C7.2688 11.1863 6.96437 10.8947 6.5933 10.8956C6.21483 10.9122 5.91945 11.2296 5.92027 11.6127ZM6.63197 15.2767C6.2535 15.2942 5.94084 14.9943 5.92356 14.6112C5.92274 14.2281 6.21894 13.9107 6.59741 13.8941C6.96766 13.8932 7.27291 14.1847 7.28114 14.5596C7.29842 14.9427 7.00304 15.26 6.63197 15.2767Z" fill="#9E9E9E"/>
</svg>
