<svg width="20" height="21" viewBox="0 0 20 21" fill="none" xmlns="http://www.w3.org/2000/svg">
<path d="M5.01181 3.73149C3.17097 3.73149 1.67847 5.22399 1.67847 7.06482V13.7315C1.67847 15.5723 3.17097 17.0648 5.01181 17.0648H15.0118C16.8527 17.0648 18.3452 15.5723 18.3452 13.7315V7.06482C18.3452 5.22399 16.8527 3.73149 15.0118 3.73149H5.01181ZM5.01181 5.39816H15.0118C15.8518 5.39816 16.546 6.01483 16.661 6.82316C15.8627 7.56733 14.676 8.48065 13.8918 9.04399C12.0877 10.3398 10.5001 11.2315 10.0118 11.2315C9.52348 11.2315 7.93597 10.3407 6.1318 9.04399C5.34763 8.48065 4.57681 7.87149 3.99598 7.37732C3.74847 7.16649 3.56513 6.99649 3.42346 6.85649C3.53846 6.04816 4.1718 5.39816 5.01181 5.39816ZM3.35348 9.02649C5.46848 10.7373 8.56764 12.8881 10.0118 12.8981C10.9526 12.9048 12.5618 12.0065 14.2035 10.8723C15.0527 10.2848 15.9977 9.58732 16.6793 9.01482L16.6785 13.7315C16.6785 14.6523 15.9327 15.3981 15.0118 15.3981H5.01181C4.09097 15.3981 3.34514 14.6523 3.34514 13.7315L3.35348 9.02649Z" fill="#9E9E9E"/>
</svg>
