<svg width="20" height="21" viewBox="0 0 20 21" fill="none" xmlns="http://www.w3.org/2000/svg">
<path fill-rule="evenodd" clip-rule="evenodd" d="M8.16935 13.1105C8.68975 13.4632 9.32398 13.6766 9.99886 13.6766C11.7877 13.6766 13.2432 12.208 13.2432 10.4031C13.2432 9.72211 13.0318 9.08218 12.6821 8.55711L11.7958 9.45137C11.9422 9.73031 12.0235 10.0585 12.0235 10.4031C12.0235 11.527 11.1128 12.4459 9.99886 12.4459C9.65735 12.4459 9.33211 12.3639 9.05565 12.2162L8.16935 13.1105ZM15.3573 5.85791C16.5363 6.94087 17.5364 8.40123 18.2845 10.1569C18.3496 10.3128 18.3496 10.4933 18.2845 10.641C16.5444 14.7267 13.4465 17.1716 9.99886 17.1716H9.99073C8.42142 17.1716 6.91716 16.6547 5.59178 15.7112L4.01433 17.3028C3.89237 17.4259 3.73787 17.4833 3.58338 17.4833C3.42889 17.4833 3.26627 17.4259 3.15243 17.3028C2.94915 17.0977 2.91663 16.7695 3.07925 16.5316L3.10364 16.4988L15.1296 4.36474C15.1459 4.34833 15.1621 4.33192 15.1703 4.31552L15.1703 4.31551C15.1865 4.2991 15.2028 4.2827 15.2109 4.26629L15.9753 3.49509C16.2192 3.25717 16.6014 3.25717 16.8372 3.49509C17.0811 3.73302 17.0811 4.12682 16.8372 4.36474L15.3573 5.85791ZM6.7486 10.4063C6.7486 10.6196 6.77299 10.8329 6.80551 11.0298L3.79699 14.0654C2.98387 13.1137 2.27646 11.9651 1.71541 10.6442C1.65036 10.4965 1.65036 10.316 1.71541 10.1601C3.45548 6.07442 6.55345 3.63776 9.99293 3.63776H10.0011C11.1638 3.63776 12.294 3.91671 13.3348 4.44178L10.619 7.18199C10.4239 7.14918 10.2125 7.12457 10.0011 7.12457C8.20407 7.12457 6.7486 8.59312 6.7486 10.4063Z" fill="#9E9E9E"/>
</svg>
